/vscmnt/brussel_pixiu_data/_data_brussel/112/vsc11236/PredSimResults/SUBJ06opt3D/weighted-expIG/worker_01.mot
version=1
nRows=4
nColumns=50
inDegrees=yes
endheader
                time	         pelvis_tilt	         pelvis_list	     pelvis_rotation	           pelvis_tx	           pelvis_ty	           pelvis_tz	       hip_flexion_r	     hip_adduction_r	      hip_rotation_r	        knee_angle_r	       ankle_angle_r	         mtp_angle_r	       hip_flexion_l	     hip_adduction_l	      hip_rotation_l	        knee_angle_l	       ankle_angle_l	         mtp_angle_l	    lumbar_extension	      lumbar_bending	     lumbar_rotation	 ercspn_r/activation	 intobl_r/activation	 extobl_r/activation	    abd_r/activation	    add_r/activation	hamstrings_r/activation	bifemsh_r/activation	glut_max_r/activation	iliopsoas_r/activation	rect_fem_r/activation	  vasti_r/activation	gastroc_r/activation	 soleus_r/activation	tib_ant_r/activation	 ercspn_l/activation	 intobl_l/activation	 extobl_l/activation	    abd_l/activation	    add_l/activation	hamstrings_l/activation	bifemsh_l/activation	glut_max_l/activation	iliopsoas_l/activation	rect_fem_l/activation	  vasti_l/activation	gastroc_l/activation	 soleus_l/activation	tib_ant_l/activation	
          0.00000000	         -6.18747867	         -1.02265753	          5.08660899	          0.00000000	          0.92846793	         -0.01067375	         32.85516605	         -1.16928463	         -7.89281693	         -8.57591634	          0.38969005	          0.22740312	        -10.42201954	         -0.80233907	         -6.36878382	        -10.84455156	          8.58929866	         33.42755773	         -5.69869511	         -0.20352510	         -8.04259258	          0.18677587	          0.16374051	          0.00999999	          0.00999999	          0.31481905	          0.06459806	          0.10887809	          0.01461170	          0.11720993	          0.01018484	          0.00999999	          0.00999999	          0.00999999	          0.52078233	          0.13083988	          0.00999999	          0.00999999	          0.08028698	          0.00999999	          0.00999999	          0.24609265	          0.01538339	          0.58851749	          0.01730651	          0.00999999	          0.24643421	          0.37939010	          0.02333568	
          0.01203683	         -6.27204006	         -0.97127301	          5.11722813	          0.01700381	          0.92664499	         -0.00998651	         33.05131955	         -1.06180348	         -7.94399592	        -10.39827880	          0.10119849	          0.22498379	        -10.85004733	         -0.93142288	         -6.75207791	        -11.74036325	          7.55276359	         35.35663416	         -5.38239435	          0.13803753	         -8.52318804	          0.17356158	          0.13638066	          0.00999999	          0.00999999	          0.42526511	          0.06542673	          0.09068535	          0.11261458	          0.09762500	          0.00999999	          0.00999999	          0.01441472	          0.01730651	          0.53023595	          0.18533312	          0.00999999	          0.00999999	          0.06687161	          0.00999999	          0.01000000	          0.20497236	          0.01441472	          0.59201938	          0.01441472	          0.00999999	          0.20819224	          0.35516011	          0.01943646	
          0.02407366	         -6.33029087	         -0.97321022	          5.13117140	          0.03449273	          0.92502676	         -0.00925766	         33.00876343	         -0.98930128	         -7.79190140	        -12.14628866	         -0.12118520	          0.19564875	        -11.14464785	         -1.15019400	         -7.13092346	        -12.95630368	          6.39423639	         37.32038379	         -5.03269773	          0.54532204	         -8.96308294	          0.14799210	          0.11359245	          0.00999999	          0.04227781	          0.35420641	          0.07088154	          0.07553249	          0.10775630	          0.08131258	          0.00999999	          0.00999999	          0.01200613	          0.01441472	          0.57535494	          0.16601476	          0.00999999	          0.00999999	          0.05569785	          0.00999999	          0.00999999	          0.20806015	          0.01200613	          0.59722987	          0.01200613	          0.00999999	          0.17340483	          0.32669772	          0.01618877	
          0.03611049	         -6.36605249	         -0.99989466	          5.11369132	          0.05221508	          0.92368902	         -0.00839133	         32.81484292	         -0.90596934	         -7.76354740	        -13.67936459	         -0.43728575	          0.18416693	        -11.21705264	         -1.43871870	         -7.51885986	        -14.61670032	          5.08662196	         39.31069642	         -4.68221715	          0.97398533	         -9.34781081	          0.16154042	          0.09461197	          0.00999999	          0.08696314	          0.32752884	          0.07264401	          0.06291156	          0.12949011	          0.06772584	          0.00999999	          0.04414727	          0.00999999	          0.01200613	          0.62726284	          0.17478165	          0.00999999	          0.00999999	          0.04639114	          0.00999999	          0.00999999	          0.19627839	          0.00999999	          0.52869220	          0.00999999	          0.00999999	          0.14443015	          0.28504957	          0.01348374	
